/* XPM */
static char *result[] = {
/* columns rows colors chars-per-pixel */
"64 64 84 1 ",
"  c #301C00",
". c #2F2C08",
"X c #352201",
"o c #3C2501",
"O c #312A07",
"+ c #3B2C05",
"@ c #362F08",
"# c #3F3206",
"$ c #33340C",
"% c #3B3409",
"& c #353B0E",
"* c #3C3D0D",
"= c #2F3D11",
"- c #323E11",
"; c #412700",
": c #452A00",
"> c #4B2D00",
", c #502F00",
"< c #453406",
"1 c #4C3202",
"2 c #463807",
"3 c #4E3B06",
"4 c #413708",
"5 c #433B0A",
"6 c #4B3D08",
"7 c #543200",
"8 c #5B3600",
"9 c #543C05",
"0 c #5E3901",
"q c #643C00",
"w c #693E00",
"e c #2E4415",
"r c #2F4815",
"t c #324213",
"y c #3A4310",
"u c #314B16",
"i c #3B4A12",
"p c #345417",
"a c #3C5315",
"s c #365817",
"d c #3A5817",
"f c #355718",
"g c #365818",
"h c #395D19",
"j c #3E621A",
"k c #45430D",
"l c #4B440B",
"z c #454B0F",
"x c #4C490E",
"c c #5D4305",
"v c #544508",
"b c #584508",
"n c #534C0B",
"m c #5B4A0A",
"M c #55530E",
"N c #5A560E",
"B c #59580F",
"V c #434910",
"C c #484F10",
"Z c #445313",
"A c #4C5611",
"S c #415815",
"D c #4C5D14",
"F c #565710",
"G c #525C12",
"H c #585B11",
"J c #654404",
"K c #6D4100",
"L c #644A06",
"P c #6C4B05",
"I c #644F08",
"U c #744500",
"Y c #784700",
"T c #764901",
"R c #7B4900",
"E c #6D5107",
"W c #645009",
"Q c #6A5409",
"! c #64590D",
"~ c #476117",
"^ c #4A6217",
"/ c #41661A",
"( c #496418",
") c #814D00",
/* pixels */
"R)R)RRRYwUUTYUUYwqUUUwRRRRRRYRTY)RRUYwKqUUKqYRY))R7>YRUYRRRUYUwY",
"))))))RYUUwYYUUYU)RRURUKRRYRYRYRRRYYRw0qwUqqYRYT)RKwYRYRqYRRRUTT",
")RR)RRTUwUYYUUY))))YYwqUYUwUTYRRRTYTYwq8wUqwTRRYRUYKYYYYURR))wwq",
"RRRRURUUwUUUUYU))UTUYRYTUq:>KUTPRUq7qUwqUUTKqYYTRUTYYUTYYRRRRUw:",
"7RYUwU8wwKwUYYRwTKTYTTRPY8::KTPHPJ2k1TRTUYYq,qwwUUYRRRUTY)))))w8",
"qTUwwUUwTKqwUYUYwwwTUTRRYK8cLnM(MnSSlPURRRYq,8qqqqwYYTTY8))R)R)R",
"TYTwTYUwUUwwYRYUwwJPQERRTPWHD(~/~~//~n0UUYYU8:8,8wYUUYwKU)))YYY)",
"KwqTYYTUwUUUTRRUwq3N^H!!NGG/////jj//jz<7UYRRU8,qqwYYYYUUwUR))wY)",
"UwqUUqYwqUTUYRYUqJM~/(((///j/jjj/////Z<90qRTY8>wwKUq8UYRYY)RRTYR",
"wwqKwqUwwUTYYYTq1v^/jj///j/j/jjj/////~Zz47KUT8qwKUU,:qY)UwTwYR)R",
"qwwqwwUq:qYYYYR82A////////jjjjjj/////jdal1>>8:,UwKKq8qYRYqUUURYw",
"7KUKwKT::,)YRYYUb~/j//////jjjjggjjj//hpp5::>wqwUUwqwUUYRYRUwUUUY",
"TUUwwKK,:7RRwRYPB^jjjjjj/jjjggggjjj/jjuuk#:8wwwwKwKUwUUwwqYwUUYY",
"YUUYUKq8qqTRRPTI^jjhjjjj/jgjgggggjjjjguuik9qw7qKJwKKUUw:wUYUwwUY",
"UU8wK71KRRRRRNFGjjjssjjjjgfgggggjjjjjprruilcqqqcnLqKUYUwUUYUUUwT",
"YUUw8::>KRTRED//jjjsffsjjgggggggjjjjfprruuiCL3EMDAbJUUUwwwUTwwTw",
"UUUw:::,TEQPD(j//jhffgjjggggggggjjjjfuuuuuuaD(Gj//VLwKwq7qw8q,8T",
"UwTK8:7JH((^(j///jhffhjgggggggsj//jgfuuuuuugjjjjhpuxKU0U:7qw7:>w",
"UwUUUJLA////jjj//jhfggjfgggggggj/jhfffuuuuuh/jjfuuuiKUw8:8qw:8wq",
"UUwKLMF////jjjjj/jhfgggfggggggjjhhgfffpuuupj/jgpuuui9KwwwwwUqwUq",
"YYKLD~(j/jjhhgjjjjggggggggggggssffhfggfffffjjhfpuuuubKKPPwwUqwYY",
"UTPF~j///jjgggh/jjgggggggggggggsffffggffffhjjhfpuuuuVnbxln9wwwwU",
"qUID////jhggggjjjjggggggggggggssggfgggggggj/hfppuupuuiiiuivwwwqq",
"UTQ^jjjjhggggghjjggggjjjhgggggffgggggggghjjjhffuuffuuuuuuivqwwUY",
"UUJFhhhhggggggdjjggjjjjjjjjfgfffsfggggggh//jhgfpffffuuuuuuk9qKqT",
"wUPMdfdggggggggggjjjjjj/jjgggsppsfgggggghj/jhggfffffuuuuuuuk0q8T",
"8UPndfggggggfgffjjjjjjjjjgggpfpusfffgggghjjjhfggfffffuuuuuuybUUU",
"qKnaggggggggggfpgjjjjjjgpggggsuupfgggggghjjhffggfffffpuuuuuuVLUU",
"qKlaffggggggggfpjjjjsgggffgggpprpsgggfgghjhhggggfffffuuuuuuuimUT",
"KJVpfgfgggggggfpjjgfgfgfggggggpupsgggggghjhgggggfhhffpurrreuuVLT",
"UJCufffggggggfpfjjpfggggggfggfuuusgggggghhhgggggggfffureeeeruivw",
"KJCupfffgggggfpdjjffggggggggpfuuusgfgggggggggggggghffureeeeeuy6q",
"UJCuupfggggfffuhjgffggfgggggffurssgggggggggfggggggggfueeeeeeeV37",
"TPxtuupgggggfpudjjgfggggggggffuupfgggfffggggggfgggggpueeeeeeu5Jw",
"q8miuuuffgggduupjjhfggggggggfurpsffgffssfgffggggggggpueeeeeei3qw",
"qq9iuuuufggffuupjffgggggggggfprpsfggfppfffffggggggfgpuueeeeet50w",
":81&uuuuuffgpuuphfffgfggggggfprpfffffpufffppggggggggpueeeeeee&:0",
">87*uuuuuffpuuupffggggggggggfuupffffprupfpppggggggffuueeee=ee-2>",
"7q8ltueuuuuuuuuuffgggggfgffpprrpsfppuurpfpupggggggffuueeeeeeet67",
",:89*eeuuuuuuuuupffgggggghgupurppppuurrpppupggggggffuueeeeee-k0q",
";:,75-teeuuuureupfpffggfffpuuuuuuuuuuueuuuupfffgffffur-eee-=@1ww",
"8,,1<5*tueueueeuupsffgffpfpruuuuruureuuuuuuupppppffpeeeee=5%+,ww",
"8888>93kteeeeeerrrfsfsfuruuurruurrre=eeuuueuuppuruuureeee*97,qq>",
"8qq,88q06eeeeeerrppssspuuuuuurerre=.@$ueee-uuruuuureeet*5600q08>",
"qqw8qq8q9yeeeeerrrrpuuuuuuuuueeee$oXo%-e=e$&ueuuuueeetv<88qq0ww8",
"::8wwq8qq3keeeeerrrrruurueeeeeee=@oooo%---..teeteeee53w78wwUUwYU",
"::>,wwq,q03te=e-eeerrrrreeeeee=-%:oXX:1<22XO=eeu-e=t9qwqqqwURYYU",
",>qqUww80q095*52-eeeeereee=ete-->>o X:,,77:o%--&555<qUwqKwUYRqqw",
">,wwwwUw8wwq97792*eeeeeeeet*5%52,>> ;,78887:>22939,:qwwwU)YRw,,w",
",8qwwqYUwww,8888<*eee=-e--*2>717,,8,,788qq8:;7888>;;qwUwwwRRRwww",
"q88w8wq,qwwq88qqqyt--*5y*3988,8888qqq>8q8,8888qqq8;;wwYUUY)UUwUU",
",8qqqUU>qwqq8wqwq66997956qq8q77,8qqqqq8qq8q0qqw8qwwwRRRwUYRUwUwU",
"q8qqqqwq88wqwUUw8wqww88qqqwwqq,:,wwwwqqqwKqwwwTw08U)RUUUTYwUYUwq",
"8,8q8888qqq8wUYTwq:,wwww0wUUwq,:,wwwwqqUwYUYUUUUqqYYRwqRU>qwUUww",
"qwqw8>>qw8qqwUTYwq,,wTwwwqKwUTwwwY)wTqqUTRRT8qwqq,wUUUU)Y7>qUUUw",
",wwwq:>wUqqU88wUUUqwwYUwwwqPURRYYY))U88wUwUT>qwqqqwwUwwwwUqUUUww",
"8wwww78qwUU8::wqqqqwwwUUww8U))RR)YYRYw8wRRRTwYUwwwURYTwYYq8wqqqU",
"UYwwwUUq8wY,::qw8:,wUUwKUwqqY)R))Yw)UwwwR))UwUwUwwUYURYYYwwwqwqq",
"wwUUYUYw8UUq>8wq>:,q8wYwUwU,qTR)YY)wUwwUYR)UwUwKTUwwwYUwqUwYqwwq",
"wwTRYUwTUwwwKUw,::wUUUYwRRRwUUTRY))YRRYUUqwUYYwqqqUwq7qwwwwUwTUw",
"UUUYYUwYwwwqwqU8>,wUUTYwUY)RRRY)RYRYR)UwUT))RYww>7TU,::qwwUU)RR)",
"wUUUURYYw8qqwwYwwwwwwwUwwR))TRTYRwYYR)UURUURR))TYYYw,:>qUwwwqww)",
"qTUqwUYTqwq7qUwwq,qwqwwUUR)R)RRYYwUUUR)Y))RRRYYURRYUwqqqqqwwwq,q",
"YUqww>qUUUq7qKwK8>wUUYYRTwRR)RRYYRwUTY))R))YRTwwYRUUqwTwwqwwUq>,"
};
